# xmcd
#
# Track frame offsets:
#	150
#	13025
#	26190
#	39122
#	53310
#	66450
#	79675
#	94790
#	109345
#	122107
#	134697
#	148785
#	164385
#	176802
#	190597
#	204117
#	217092
#	231982
#
# Disc length: 3262 seconds
#
# Revision: 1
# Processed by: cddbd v1.5.1PL0 Copyright (c) Steve Scherf et al.
# Submitted via: audiograbber 1.83.01
#
DISCID=020cbc12
DTITLE=Big Bill Broonzy - I Can't Be Satisfied
DYEAR=1996
DGENRE=Blues
TTITLE0=I can't be satisfied
TTITLE1=Bull cow blues
TTITLE2=Long tall mama
TTITLE3=Worrying you off my mind (Part 1)
TTITLE4=How you want it done
TTITLE5=Too too train blues
TTITLE6=Good Jelly
TTITLE7=Rising sun shine on
TTITLE8=Good liquor gonna carry me down
TTITLE9=Hattie blues
TTITLE10=Horny frog
TTITLE11=Friendless blues
TTITLE12=Mississippi river blues
TTITLE13=Come home early
TTITLE14=Big Bill blues
TTITLE15=It's your time now
TTITLE16=Southern flood blues
TTITLE17=W.P.A. rag
EXTD=TKO - Media Music Group
EXTT0=
EXTT1=
EXTT2=
EXTT3=
EXTT4=
EXTT5=
EXTT6=
EXTT7=
EXTT8=
EXTT9=
EXTT10=
EXTT11=
EXTT12=
EXTT13=
EXTT14=
EXTT15=
EXTT16=
EXTT17=
PLAYORDER=
